<svg xmlns="http://www.w3.org/2000/svg" xmlns:xlink="http://www.w3.org/1999/xlink" width="276.073" height="80" viewBox="0 0 276.073 80">
  <defs>
    <clipPath id="clip-path">
      <rect id="Rectangle_2" data-name="Rectangle 2" width="101.718" height="16.64" fill="none"/>
    </clipPath>
  </defs>
  <g id="Group_1" data-name="Group 1" transform="translate(-912.557 -450)">
    <g id="Group_3" data-name="Group 3" transform="translate(912.557 481.623)">
      <path id="Path_1" data-name="Path 1" d="M12.58.15l.136,12.2L2.961.15H0V16.263H2.877L2.685,3.705,12.66,16.263h2.757V.15Z" transform="translate(0 0.015)" fill="#f5742c"/>
      <g id="Group_2" data-name="Group 2" transform="translate(0 0)">
        <g id="Group_1-2" data-name="Group 1" clip-path="url(#clip-path)">
          <path id="Path_2" data-name="Path 2" d="M28.193,6.81a5.48,5.48,0,0,0-1.856-2.933,4.94,4.94,0,0,0-3.156-1.04A5.215,5.215,0,0,0,19.912,3.9,5.423,5.423,0,0,0,18,6.81ZM17.918,9.287a5.154,5.154,0,0,0,1.8,3.113,5.5,5.5,0,0,0,6.017.533,4.883,4.883,0,0,0,1.861-1.85h3.231a8.807,8.807,0,0,1-3.08,3.9,7.974,7.974,0,0,1-4.6,1.349,8.506,8.506,0,0,1-3.238-.6,8.023,8.023,0,0,1-2.651-1.8,8.279,8.279,0,0,1-1.745-2.622,7.782,7.782,0,0,1-.629-3.057,7.905,7.905,0,0,1,.574-3.023A8.044,8.044,0,0,1,17.149,2.67,7.947,7.947,0,0,1,19.833.784,8.226,8.226,0,0,1,23.092.15,8.346,8.346,0,0,1,27,1.092a8.214,8.214,0,0,1,2.978,2.624,7.787,7.787,0,0,1,1.03,2.291,11.011,11.011,0,0,1,.331,2.847v.434Z" transform="translate(1.494 0.015)" fill="#f5742c" fill-rule="evenodd"/>
          <path id="Path_3" data-name="Path 3" d="M76.713,6.81a5.5,5.5,0,0,0-1.855-2.933A4.944,4.944,0,0,0,71.7,2.837,5.219,5.219,0,0,0,68.431,3.9a5.412,5.412,0,0,0-1.9,2.908ZM66.437,9.287a5.361,5.361,0,0,0,7.822,3.645,4.855,4.855,0,0,0,1.858-1.85h3.229a8.761,8.761,0,0,1-3.075,3.9,7.986,7.986,0,0,1-4.6,1.349,8.518,8.518,0,0,1-3.238-.6,8.045,8.045,0,0,1-2.651-1.8,8.3,8.3,0,0,1-1.745-2.622,7.8,7.8,0,0,1-.628-3.057,7.989,7.989,0,0,1,.573-3.023A8.073,8.073,0,0,1,65.671,2.67,7.935,7.935,0,0,1,68.352.784,8.238,8.238,0,0,1,71.611.15a8.342,8.342,0,0,1,3.907.942A8.216,8.216,0,0,1,78.5,3.716a7.782,7.782,0,0,1,1.028,2.291,11.011,11.011,0,0,1,.333,2.847v.434Z" transform="translate(6.362 0.015)" fill="#f5742c" fill-rule="evenodd"/>
          <path id="Path_4" data-name="Path 4" d="M82.54,16.262H79.571V.406h2.851v1.8A5.835,5.835,0,0,1,84.471.648a6.23,6.23,0,0,1,2.555-.5A6.538,6.538,0,0,1,92,1.981a7.365,7.365,0,0,1,1.732,5.25v9.032H90.749V7.849A5.941,5.941,0,0,0,89.775,4.1a4.351,4.351,0,0,0-6.238.217,8.572,8.572,0,0,0-1,4.739Z" transform="translate(7.984 0.015)" fill="#f5742c" fill-rule="evenodd"/>
          <path id="Path_5" data-name="Path 5" d="M29.305.143H31.9l.034.11L35.414,11.9,38.538.259l.03-.116h2.064l.03.116L43.776,11.9,47.245.253l.031-.11h2.809l-.064.2L44.954,16.151l-.034.108H42.48l-.03-.114L39.589,4.934,36.7,16.144l-.03.114H34.268l-.034-.108L29.154.34l-.062-.2Z" transform="translate(2.919 0.014)" fill="#f5742c"/>
          <path id="Path_6" data-name="Path 6" d="M55.828,8.1h8.6l-.007.156v.012c-.015.343-.045.681-.089,1.016s-.1.651-.178.962a8.2,8.2,0,0,1-2.261,4.07v0h0a8.434,8.434,0,0,1-.684.6,7.562,7.562,0,0,1-.736.515,8.507,8.507,0,0,1-4.552,1.206h0a9.129,9.129,0,0,1-1.8-.173l-.282-.063a8.081,8.081,0,0,1-2.881-1.319,8.978,8.978,0,0,1-1.338-1.193h0c-.1-.1-.189-.207-.287-.325s-.185-.224-.27-.335A7.638,7.638,0,0,1,48,11.31v0c-.051-.133-.1-.27-.142-.406s-.088-.279-.123-.415a8.806,8.806,0,0,1-.284-2.261,8.007,8.007,0,0,1,.166-1.639,7.806,7.806,0,0,1,.5-1.551A8.073,8.073,0,0,1,48.93,3.6a8.881,8.881,0,0,1,1.126-1.283A8.466,8.466,0,0,1,51.338,1.3,7.784,7.784,0,0,1,52.77.579,8.354,8.354,0,0,1,54.355.145,10.23,10.23,0,0,1,56.1,0a9.509,9.509,0,0,1,2.369.284,7.658,7.658,0,0,1,2.063.856h.007c.177.109.351.22.515.339s.329.246.481.376a7.359,7.359,0,0,1,1.885,2.531l.1.212H60.277L60.23,4.54a5.137,5.137,0,0,0-.868-.855,4.863,4.863,0,0,0-1.009-.611l0,0-.307-.128-.319-.109a6.088,6.088,0,0,0-1.807-.255,5.636,5.636,0,0,0-2.14.41h0l-.276.121-.272.136a5.368,5.368,0,0,0-1.251.924h0v0l-.221.231-.208.243A5.771,5.771,0,0,0,50.7,6.057v0l-.122.3-.1.3a5.327,5.327,0,0,0-.241,1.584v0a6.563,6.563,0,0,0,.106,1.167l.037.186a5.89,5.89,0,0,0,.274.913v0l.123.294.141.282a5.087,5.087,0,0,0,.925,1.262h0l0,0,.234.224.245.208a5.738,5.738,0,0,0,1.408.84,5.62,5.62,0,0,0,1.083.339,5.269,5.269,0,0,0,1.1.114,6.135,6.135,0,0,0,1.711-.232,5.309,5.309,0,0,0,1.492-.7h0c.131-.088.255-.179.377-.277s.248-.206.362-.311a7.348,7.348,0,0,0,1.445-1.955H55.672V8.1Z" transform="translate(4.761 0)" fill="#f5742c"/>
        </g>
      </g>
    </g>
    <path id="Path_7" data-name="Path 7" d="M25.155.012,0,80l2.382-.012L27.537,0Z" transform="translate(1013.47 450)" fill="#f5742c"/>
    <path id="Path_930" data-name="Path 930" d="M14.343-7.728a8.7,8.7,0,0,0-1.6-4.956A7.361,7.361,0,0,0,6.405-15.54H1.365V0H6.321A8.117,8.117,0,0,0,12.39-2.247,8.348,8.348,0,0,0,14.343-7.728Zm-2.268,0c0,3.591-2.2,5.649-5.733,5.649H3.633V-13.461H6.384a5.3,5.3,0,0,1,5.229,3.36A6.624,6.624,0,0,1,12.075-7.728ZM19.215,0V-15.54H16.947V0ZM37.548-7.728H27.72v2.079h7.245A5.733,5.733,0,0,1,29.61-1.785a5.931,5.931,0,0,1-5.775-5.943,5.918,5.918,0,0,1,5.754-6.027,5.455,5.455,0,0,1,4.242,2.121h2.646a7.956,7.956,0,0,0-6.972-4.2,7.969,7.969,0,0,0-7.938,8.106A7.954,7.954,0,0,0,29.526.294a8.187,8.187,0,0,0,3.381-.756A7.853,7.853,0,0,0,37.548-7.728ZM42.063,0V-15.54H39.8V0ZM52-13.461V-15.54H43.764v2.079h2.982V0h2.268V-13.461ZM65.751,0l-5.9-15.54H57.813L51.912,0h2.394l1.722-4.578h5.586L63.336,0ZM60.837-6.657H56.826L58.821-12.6h.042ZM75.327,0V-2.079h-5.4V-15.54H67.662V0Zm19.95-15.54H93.7L89.9-2.016h-.042L86.142-15.54H84.693L81-2h-.042l-3.8-13.545h-1.6L79.989,0h1.995l3.4-12.747h.042L88.851,0h1.974Zm17.556,7.77a8.166,8.166,0,0,0-8.232-8.043A8.151,8.151,0,0,0,96.39-7.686,8.186,8.186,0,0,0,104.6.273,8.179,8.179,0,0,0,112.833-7.77Zm-1.554.021A6.682,6.682,0,0,1,104.6-1.134a6.693,6.693,0,0,1-6.657-6.552,6.7,6.7,0,0,1,6.657-6.72A6.7,6.7,0,0,1,111.279-7.749Zm14.469-2.772a4.813,4.813,0,0,0-2.772-4.431,9.475,9.475,0,0,0-3.822-.588h-3.948V0h1.554V-14.133h2.709a5.966,5.966,0,0,1,3.024.588,3.464,3.464,0,0,1,1.7,2.982,3.411,3.411,0,0,1-2.562,3.3,12.724,12.724,0,0,1-3.339.231L123.564,0h1.953l-4.389-5.8A4.724,4.724,0,0,0,125.748-10.521ZM138.894,0l-6.153-7.959,6.153-7.581H136.9L129.78-6.615h-.042V-15.54h-1.554V0h1.554V-4.263l2.016-2.478L136.941,0Zm9.933-4.284c0-2.415-1.575-3.822-3.8-4.494-1.575-.483-3.7-.84-3.7-2.919a2.714,2.714,0,0,1,2.814-2.709,2.8,2.8,0,0,1,2.751,2.814h1.554a4.2,4.2,0,0,0-4.305-4.221,4.194,4.194,0,0,0-4.368,4.179c0,2.688,1.827,3.444,4.032,4.1,1.7.5,3.465,1.218,3.465,3.318a3.088,3.088,0,0,1-3.129,3.087,3.093,3.093,0,0,1-3.234-3.213h-1.554a4.522,4.522,0,0,0,4.788,4.62A4.594,4.594,0,0,0,148.827-4.284Z" transform="translate(1039.802 497.127)" fill="#707070"/>
  </g>
</svg>
